<?xml version="1.0" encoding="utf-8" standalone="yes"?>
<!DOCTYPE svg PUBLIC "-//W3C//DTD SVG 1.1//EN" "http://www.w3.org/Graphics/SVG/1.1/DTD/svg11.dtd">
<svg xmlns="http://www.w3.org/2000/svg" xmlns:xlink="http://www.w3.org/1999/xlink" xmlns:dc="http://purl.org/dc/elements/1.1/" xmlns:cc="http://web.resource.org/cc/" xmlns:rdf="http://www.w3.org/1999/02/22-rdf-syntax-ns#" xmlns:sodipodi="http://sodipodi.sourceforge.net/DTD/sodipodi-0.dtd" xmlns:inkscape="http://www.inkscape.org/namespaces/inkscape" cursor="default" style="zoom: 1;" height="700px" id="svg_document" width="700px" baseProfile="full" version="1.1" preserveAspectRatio="xMidYMid meet" viewBox="0 0 700 700"><!-- Created with macSVG - https://macsvg.org/ - https://github.com/dsward2/macsvg/ --><title id="svg_document_title">Untitled.svg</title><defs id="svg_document_defs"></defs><g id="main_group"></g><polygon points="193,265 212,291 176,319 194,348 230,319 248,343 386,241 316,616 442,618 467,466 574,467 590,373 485,371 508,262 565,343 599,316 619,343 654,317 635,292 673,265 581,132 546,159 490,80 386,161 368,134 193,264 " stroke="" id="polygon1" stroke-width="3px" fill="#ffffff" transform=""></polygon><polygon points="360,280 335,299 358,302 " stroke="none" id="polygon2" stroke-width="3px" fill="#ffffff" transform=""></polygon><polygon points="95,210 236,211 222,224 " stroke="none" id="polygon3" stroke-width="3px" fill="#ffffff" transform=""></polygon><polygon points="83,271 177,272 186,283 " stroke="none" id="polygon4" stroke-width="3px" fill="#ffffff" transform=""></polygon><polygon points="72,333 169,333 178,346 " stroke="none" id="polygon5" stroke-width="3px" fill="#ffffff" transform=""></polygon><polygon points="226,344 216,350 234,352 " stroke="none" id="polygon6" stroke-width="3px" fill="#ffffff" transform=""></polygon><polygon points="292,334 265,355 344,365 351,335 " stroke="none" id="polygon7" stroke-width="3px" fill="#ffffff" transform=""></polygon><polygon points="60,395 339,396 335,427 " stroke="none" id="polygon8" stroke-width="3px" fill="#ffffff" transform=""></polygon><polygon points="48,457 328,459 323,489 " stroke="none" id="polygon9" stroke-width="3px" fill="#ffffff" transform=""></polygon><polygon points="38,519 316,521 311,550 " stroke="none" id="polygon10" stroke-width="3px" fill="#ffffff" transform=""></polygon><polygon points="25,581 304,584 300,612 " stroke="none" id="polygon11" stroke-width="3px" fill="#ffffff" transform=""></polygon></svg>